# xmcd
#
# Track frame offsets:
# 150
# 3010
# 17925
# 34247
# 51545
# 66985
# 78282
# 91577
# 104667
# 121560
# 132670
#
# Disc length: 1968 seconds
#
# Revision: 6
# Processed by: cddbd v1.5.2PL0 Copyright (c) Steve Scherf et al.
# Submitted via: TinyPlayer 2.8
#
DISCID=8b07ae0b
DTITLE=Various Artist - NASCAR: Hotter Than Asphalt
DYEAR=1996
DGENRE=Country
TTITLE0=Ricochet - Introduction - The Star Spangled Banner
TTITLE1=Lynyrd Skynyrd - White Knuckle Ride
TTITLE2=Mark Collie - Love to Burn
TTITLE3=Joe Diffie - Tearin' It Up
TTITLE4=Waylon Jennings - I Can Run with the Big Dogs
TTITLE5=Alabama - Sunday Drive
TTITLE6=Tracy Lawrence - One Foot on the Pedal
TTITLE7=Tanya Tucker - Going Nowhere and Getting There Fast
TTITLE8=Little Texas - You Gotta Wanna Win
TTITLE9=Hank Williams, Jr. - Down in Huey Town
TTITLE10=Killer Beaz with Lynyrd Skynyrd - Save Up
EXTD=Location:  - UPC: 074646751022 - Catalogue number: CK 67510 - Label: Columbia - ASIN: B000002BGI - Release Date: 1996 02 13 - Discogs: r4988289 - MUSICBRAINZ_ALBUMID: 352e4933-820b-4154-b306-5e5a148e7ee9 - AMG: mw0000180366;
EXTT0=(1996,Ricochet;arrRonChancey;PAAnnouncer~TanyaTucker)
EXTT1=
EXTT2=
EXTT3=
EXTT4=
EXTT5=
EXTT6=
EXTT7=
EXTT8=
EXTT9=There is a town called "Hueytown" in Alabama, US but...
EXTT10=
PLAYORDER=
